# xmcd
#
# Track frame offsets: 
#        150
#        36045
#        53164
#        68758
#        91174
#        109092
#        122897
#        140814
#        163670
#        181717
#        197439
#        221757
#        269374
#
# Disc length: 3861 seconds
#
# Revision: 0
# Processed by: cddbd v1.5.2PL0 Copyright (c) Steve Scherf et al.
# Submitted via: ExactAudioCopy v1.0b3
#
DISCID=b90f130d
DTITLE=Trad, Gras Och Stenar med 4 Dalaspeleman - Proggladan-Box C [CD
DTITLE=8: 1971)
DYEAR=2013
DGENRE=Swedish Progg
TTITLE0=Våran Vila
TTITLE1=Spelemän: Trollpolska från Boda
TTITLE2=Mungigalåt
TTITLE3=In Kommer Gösta
TTITLE4=Spelemän: Gånglåt från Ore
TTITLE5=Mungalåten
TTITLE6=Polska från Enviken 1
TTITLE7=Svarta Pärlan
TTITLE8=Polska från Ore
TTITLE9=Sanningens Silverflod
TTITLE10=Polska från Enviken 1
TTITLE11=Tidigt Om Morgonen
TTITLE12=Vals från Enviken
EXTD=
EXTT0=
EXTT1=
EXTT2=
EXTT3=
EXTT4=
EXTT5=
EXTT6=
EXTT7=
EXTT8=
EXTT9=
EXTT10=
EXTT11=
EXTT12=
PLAYORDER=
